<svg height="431pt" viewBox="0 -10 431.66 431" width="431pt" xmlns="http://www.w3.org/2000/svg"><path d="m97.0625 240.238281-4.992188 87.347657 78.578126-32.164063zm0 0"/><path d="m344.5625 83.597656c7.039062-9.085937 10.144531-20.613281 8.625-32.007812-1.515625-11.390625-7.535156-21.703125-16.707031-28.628906l-18.53125-14c-18.824219-14.121094-45.488281-10.550782-59.9375 8.015624l-12.335938 15.964844 86.980469 66.03125zm0 0"/><path d="m320.410156 114.785156-86.964844-66.019531-131.488281 170.140625 87.175781 65.382812zm0 0"/><path d="m421.660156 391.390625h-411.660156c-5.523438 0-10 4.476563-10 10s4.476562 10 10 10h411.660156c5.523438 0 10-4.476563 10-10s-4.476562-10-10-10zm0 0"/></svg>